
    <svg width="256" height="256" viewBox="0 0 256 256" fill="none" xmlns="http://www.w3.org/2000/svg">
        
<g id="Frame 46">
<rect width="256" height="256" fill="#4DDFFF"/>
<rect width="256" height="256" fill="#4DDFFF"/>
<rect width="256" height="256" fill="#FF8D4D"/>
</g>

        
<g id="head">
<path id="Vector" d="M36.7332 45.6036C36.5521 45.9054 36.7936 47.1125 37.2764 48.2593C37.7593 49.4061 38.0007 50.915 37.8196 51.5789C37.6386 52.2428 37.7593 53.631 38.1214 54.5967C38.9061 56.8903 37.9403 57.856 34.5 58.2182C33.5946 58.3389 34.0171 60.0892 34.9829 60.0892C35.4657 60.0892 35.7071 60.3306 35.5261 60.6928C35.345 60.9946 35.4657 61.2964 35.8882 61.2964C36.3107 61.2964 36.4314 61.8999 36.3107 62.8053C36.1296 63.6503 36.19 64.3142 36.3711 64.3142C36.7936 64.3142 37.2764 73.4281 37.0953 77.2909C36.6728 86.0427 36.7332 86.767 37.6386 87.2498C38.3025 87.6723 38.3025 87.793 37.7593 87.8534C37.2764 87.8534 37.035 88.2155 37.2161 88.5777C37.3368 89.0002 37.035 90.2677 36.6125 91.4145L35.7071 93.4666L37.2764 92.4405C38.7853 91.4748 38.8457 91.4748 38.8457 92.6216C38.8457 93.4062 38.5439 93.708 38.0007 93.5269C37.5178 93.3459 36.9746 93.4666 36.7332 93.8287C36.5521 94.1909 36.8539 94.4927 37.4575 94.4927C38.3025 94.4927 38.3628 94.6134 37.7593 95.0359C36.6125 95.6998 36.7332 96.4844 38.0611 96.9673C39.0268 97.3898 39.0268 97.4501 37.88 97.4501C36.6125 97.5105 36.3711 98.1744 36.4918 101.434C36.4918 102.399 36.6125 104.27 36.6125 105.538C36.6728 106.987 36.9746 107.711 37.3971 107.53C37.8196 107.349 38.3025 107.65 38.4836 108.133C38.725 108.858 38.5439 108.978 37.6386 108.677C36.9746 108.435 36.4314 108.556 36.4314 108.918C36.4314 109.28 36.7332 109.582 37.035 109.582C37.4575 109.582 37.4575 109.944 37.035 110.789C36.2503 112.298 36.8539 112.358 38.4836 110.91C39.5096 110.065 39.6303 110.065 38.9664 110.91C38.5439 111.453 38.4232 111.996 38.725 112.117C38.9664 112.177 38.8457 112.962 38.3628 113.807C37.5782 115.195 37.5782 115.195 37.8196 113.928C38.0007 113.203 37.88 112.6 37.5782 112.6C36.7332 112.6 36.9746 114.773 37.9403 115.618C38.6043 116.161 38.8457 118.696 38.9664 128.293C39.0871 134.871 38.9664 140.122 38.7853 140.002C38.1818 139.64 38.3025 144.046 38.9061 145.736C39.2682 146.52 39.5096 148.693 39.5096 150.444C39.57 152.254 39.8718 154.005 40.2943 154.427C40.6564 154.85 40.8978 156.721 40.8375 159.014C40.7168 162.273 40.8375 162.756 41.6221 162.455C42.1653 162.273 42.7085 162.092 42.8292 162.092C43.0103 162.092 42.95 161.791 42.7689 161.489C42.5878 161.127 42.6482 160.885 42.95 160.885C43.8553 160.885 46.3299 165.955 46.2092 167.525C45.9678 169.456 46.9939 171.448 49.7099 174.345C50.8567 175.612 52.4864 177.785 53.3313 179.234C54.8403 181.829 55.9871 183.157 60.2724 187.503C61.7813 189.012 62.6263 190.339 62.5056 191.124C62.3849 191.909 63.1092 193.116 64.7388 194.564C66.127 195.832 67.2134 196.979 67.2134 197.16C67.2134 197.401 68.8431 199.212 70.8348 201.204C72.8266 203.256 74.4563 205.308 74.4563 205.73C74.4563 206.877 77.7759 209.895 78.3795 209.352C78.6209 209.05 78.6812 209.171 78.5002 209.593C78.0777 210.197 83.2684 215.75 84.898 216.414C85.3205 216.595 87.2519 217.802 89.2437 219.13C91.2355 220.458 93.2876 221.785 93.8308 222.147C100.168 226.01 102.402 227.278 104.393 227.881C105.661 228.304 107.592 229.028 108.679 229.511C109.705 229.934 110.972 230.296 111.515 230.296C112.059 230.296 113.085 230.96 113.809 231.805C114.533 232.65 116.042 233.434 117.249 233.676C120.207 234.159 122.078 235.124 121.776 236.03C121.535 236.573 122.561 236.875 124.975 237.176C132.278 237.961 136.081 238.685 137.046 239.47C137.469 239.832 138.193 239.832 138.917 239.41C139.521 239.047 142.599 238.746 145.677 238.685C151.713 238.565 152.437 238.323 162.517 232.951C164.629 231.805 167.164 230.899 168.07 230.899C170.001 230.899 170.967 229.813 169.76 229.028C168.734 228.425 166.561 228.907 163.784 230.356C156.481 234.159 151.834 235.849 147.428 236.331C142.539 236.875 136.926 236.633 134.149 235.728C133.304 235.486 130.83 235.366 128.657 235.547C126.061 235.788 124.552 235.667 124.311 235.185C123.828 234.46 124.311 234.34 128.053 234.521C129.502 234.581 130.588 234.34 130.588 233.977C130.588 233.615 130.588 233.132 130.588 232.831C130.588 232.589 129.441 232.408 127.993 232.348C119.664 232.287 117.491 232.046 116.344 231.141C115.74 230.658 115.499 230.356 115.861 230.537C116.766 230.96 119.12 229.209 119.12 228.123C119.12 227.157 117.853 226.976 116.948 227.881C116.042 228.787 109.463 227.942 109.463 226.976C109.463 225.648 107.713 224.562 106.928 225.346C105.842 226.433 105.178 226.252 101.677 223.958C99.9269 222.811 97.8747 221.665 97.0901 221.484C95.219 221.001 90.7526 217.138 90.7526 215.991C90.7526 215.388 90.4508 215.206 89.7266 215.508C87.7951 216.233 87.4934 216.112 87.2519 214.844C87.1312 214.12 85.3809 211.947 83.3287 210.016C81.2766 208.084 78.5002 205.127 77.2327 203.437C75.9652 201.807 73.3095 198.789 71.3781 196.798C66.7306 191.969 64.7388 189.494 65.2217 189.012C65.4631 188.83 64.1956 187.261 62.5056 185.632C60.7552 183.942 59.367 182.433 59.367 182.131C59.367 181.769 54.4178 176.216 50.5549 172.232C50.0117 171.689 49.7703 170.965 49.9514 170.663C50.2531 170.12 47.1146 163.3 45.6057 161.247C44.9417 160.342 43.6742 155.332 43.0103 151.228C42.7689 149.417 42.286 146.339 41.9239 144.408C41.6221 142.537 41.3203 132.035 41.3203 121.17C41.3203 99.623 40.8375 86.5255 39.9925 80.9124C39.3889 77.1702 39.6907 53.9328 40.2943 52.9068C40.5357 52.605 40.415 52.1825 40.1132 52.0014C39.8114 51.76 39.6907 50.1303 39.8718 48.3196C40.2339 45.0604 40.1735 45 38.6646 45C37.8196 45 36.9746 45.2414 36.7332 45.6036ZM38.4232 99.1401C38.1818 99.6833 38.3025 99.9851 38.6043 99.7437C38.9664 99.5626 39.2682 100.227 39.3285 101.192C39.3889 102.158 39.1475 102.943 38.8457 102.943C38.4836 102.943 38.3628 102.641 38.5439 102.339C38.725 101.977 38.4836 101.735 38.0007 101.735C37.4575 101.735 37.035 101.615 37.035 101.494C37.035 100.83 38.2421 98.1141 38.4836 98.1141C38.6646 98.1141 38.6043 98.5366 38.4232 99.1401Z" fill="black"/>
<path id="Vector_2" d="M205.129 51.0357C204.948 51.3374 204.948 52.6049 205.189 53.7517C205.431 55.1399 205.31 56.2263 204.827 56.7696C204.224 57.4938 204.224 58.0974 204.646 59.0631C206.759 63.4088 207.241 65.0988 207.241 67.5734C207.241 69.0824 207.422 70.3499 207.724 70.3499C208.267 70.3499 208.509 74.937 208.75 92.6819C209.052 112.962 210.259 126.784 211.768 126.301C212.432 126.059 212.372 124.43 211.104 115.98C209.957 107.771 209.957 97.088 211.104 97.088C212.07 97.088 212.372 98.8383 212.975 108.978C213.156 112.117 213.458 115.497 213.579 116.523C213.881 118.816 214.605 129.5 214.545 130.707C214.303 135.052 214.484 136.803 215.39 138.191C215.993 139.036 216.174 139.76 215.812 139.76C215.51 139.76 215.269 140.424 215.269 141.269C215.269 142.054 215.39 142.657 215.631 142.537C215.933 142.356 215.933 147.848 215.691 154.85C215.631 155.695 215.872 158.048 216.114 160.04C216.536 162.696 216.416 164.386 215.872 166.016C215.39 167.343 215.329 168.611 215.631 169.214C215.933 169.758 215.752 170.904 215.027 172.293C214.424 173.5 213.519 176.035 212.915 177.966C212.251 180.32 211.104 182.252 209.595 183.821C208.267 185.149 207.241 186.537 207.241 186.899C207.241 187.261 206.578 188.408 205.733 189.494C204.888 190.581 204.224 191.667 204.224 191.969C204.224 192.21 203.56 192.935 202.715 193.599C200.844 195.047 200.663 196.737 202.413 196.194C203.922 195.711 203.922 196.496 202.413 199.453C201.809 200.721 201.447 201.928 201.628 202.169C201.87 202.35 201.689 202.531 201.326 202.531C200.964 202.531 200.481 203.135 200.24 203.859C199.878 205.006 197.162 209.05 195.291 211.283C194.566 212.128 189.617 216.293 184.608 220.397C182.314 222.268 179.779 224.441 179.055 225.226C177.244 227.157 169.217 232.287 167.708 232.469C164.69 232.831 158.835 236.392 159.801 237.357C159.982 237.599 161.008 237.176 161.974 236.392C163 235.667 164.267 235.124 164.871 235.185C165.414 235.305 166.863 235.124 168.009 234.822C169.156 234.581 170.544 234.279 171.027 234.219C171.51 234.159 174.528 232.891 177.667 231.322C182.193 229.149 184.064 227.881 186.418 225.226C188.108 223.355 191.79 219.492 194.627 216.534C198.49 212.551 199.938 210.68 200.24 209.05C200.421 207.903 201.145 206.455 201.809 205.851C202.473 205.248 203.016 204.282 203.016 203.739C203.016 203.195 203.62 201.988 204.405 201.083C205.189 200.238 206.578 197.944 207.543 196.073C208.569 194.142 209.957 191.728 210.742 190.702C211.466 189.675 212.07 188.649 212.07 188.468C212.07 188.227 213.156 185.692 214.545 182.795C216.174 179.294 217.08 176.457 217.2 174.466C217.321 172.836 217.804 170.18 218.347 168.551C218.83 166.981 219.132 165.714 218.951 165.714C218.77 165.714 218.951 165.231 219.252 164.627C219.615 163.963 220.037 161.489 220.218 159.014C220.399 156.54 220.701 153.823 220.882 152.918C221.184 151.53 220.942 151.107 219.735 150.685C218.347 150.142 218.287 149.9 218.709 147.848C219.011 146.581 219.132 145.373 219.011 145.192C218.89 145.011 218.709 142.235 218.649 139.096C218.589 136.018 218.347 132.94 218.045 132.397C217.744 131.854 217.381 130.103 217.261 128.474C216.838 124.49 215.209 109.159 214.484 102.943C214.182 100.106 213.881 94.7944 213.82 91.0523C213.76 85.6805 213.519 83.8698 212.613 82.1798C211.829 80.6709 211.466 78.7998 211.466 76.2045C211.466 71.7381 210.501 65.8231 209.354 63.7106C207.845 60.8135 207.181 57.011 207.604 53.6914C207.966 50.6735 207.905 50.4321 206.759 50.4321C206.034 50.4321 205.31 50.6735 205.129 51.0357ZM211.466 90.5694C211.044 91.0523 210.44 91.4748 210.139 91.4748C209.776 91.4748 209.837 91.0523 210.259 90.5694C210.682 90.0866 211.285 89.6641 211.587 89.6641C211.949 89.6641 211.889 90.0866 211.466 90.5694ZM212.251 92.5008C211.829 92.6216 211.466 93.2855 211.466 93.8891C211.466 95.3376 210.501 95.9412 210.018 94.7944C209.475 93.3458 210.259 92.0784 211.708 92.1387C212.372 92.1387 212.613 92.3198 212.251 92.5008ZM219.313 154.85C219.313 156.781 218.77 158.471 218.166 158.471C217.985 158.471 217.804 157.143 217.804 155.513C217.804 153.401 217.985 152.677 218.528 152.858C218.951 153.039 219.313 153.944 219.313 154.85ZM218.709 160.704C218.709 161.549 217.562 162.998 217.2 162.636C216.717 162.153 217.502 160.282 218.166 160.282C218.468 160.282 218.709 160.463 218.709 160.704ZM210.561 187.08C209.535 189.253 208.449 189.977 208.449 188.408C208.449 187.442 210.863 184.243 211.285 184.666C211.466 184.787 211.104 185.873 210.561 187.08ZM208.026 192.15C207.905 192.754 207.181 194.021 206.396 194.927C205.189 196.496 205.069 196.496 205.008 195.349C204.948 194.625 205.129 194.082 205.491 194.082C205.793 194.082 206.034 193.538 206.034 192.935C206.034 191.909 206.698 191.245 207.966 191.124C208.147 191.064 208.207 191.547 208.026 192.15ZM188.531 219.431C188.531 220.216 183.702 225.467 183.038 225.467C182.737 225.467 181.529 226.433 180.443 227.58C178.33 229.752 177.425 230.115 176.761 229.089C176.52 228.726 176.822 228.666 177.425 228.907C178.089 229.149 178.33 229.028 178.089 228.666C177.908 228.364 178.391 227.7 179.175 227.278C180.02 226.855 180.684 226.131 180.684 225.709C180.684 225.346 181.288 224.562 182.073 224.079C182.797 223.536 184.487 222.147 185.754 221.001C188.35 218.647 188.531 218.526 188.531 219.431Z" fill="black"/>
</g>

        
<path d="M96.8511 3.60848C96.8511 4.48292 98.6681 6.66903 100.745 8.41792C105.936 12.7901 105.677 15.4135 100.226 16.5065C96.5915 17.381 96.8511 17.5996 101.264 17.8182C104.379 17.8182 107.753 19.1299 108.791 20.4415C109.83 22.1904 108.532 22.409 104.638 21.316C100.226 20.2229 99.1872 20.4415 100.745 22.409C102.043 24.3765 101.783 24.8138 99.7064 23.7207C98.1489 22.8463 94.7745 18.6926 91.9192 14.3204C87.766 7.32487 87.2468 6.88765 85.6894 11.2599C84.9106 13.6646 85.4298 15.4135 86.4681 14.7576C87.766 14.1018 89.3234 14.539 90.1021 15.6321C92.1787 18.474 78.1617 20.2229 72.7106 17.5996C70.1149 16.5065 66.7404 16.0693 64.9234 16.7251C63.1064 17.1624 64.4043 18.474 67.7787 19.1299C70.8936 20.0043 73.4894 21.7532 73.4894 22.8463C73.4894 23.9393 74.5277 24.3765 75.8255 23.7207C77.1234 22.8463 81.017 23.2835 84.1319 24.3765C89.3234 25.9068 88.2851 26.344 77.383 27.6557C63.366 29.6232 47.7915 35.3071 42.6 40.7724C40.5234 42.7399 36.8894 44.2701 34.034 44.2701C31.4383 44.2701 29.6213 45.1446 30.4 46.2376C31.9574 48.2051 11.7106 63.9451 8.0766 63.9451C6.77872 63.9451 6 65.0382 6 66.3499C6 67.8801 8.85532 67.2243 13.0085 65.0382C17.9404 62.1963 20.2766 61.9776 21.0553 63.7265C21.5745 65.0382 23.1319 65.694 24.1702 65.0382C25.4681 64.3824 25.9872 62.4149 25.2085 60.8846C24.4298 58.9171 25.9872 57.1682 29.1021 56.2938C34.034 54.9821 35.8511 52.5774 34.8128 47.9865C34.5532 46.8935 35.5915 46.6749 37.1489 47.5493C38.7064 48.2051 38.966 49.954 38.1872 51.2657C37.1489 52.5774 37.9277 54.3263 39.7447 55.2007C42.0809 56.2938 42.0809 57.1682 40.0043 58.2613C38.4468 59.1357 37.1489 58.6985 37.1489 57.3868C37.1489 56.0751 35.8511 55.6379 34.5532 56.2938C32.4766 57.3868 32.7362 58.6985 34.8128 60.8846C36.3702 62.6335 36.8894 65.4754 35.8511 67.6615C34.5532 69.8476 34.034 72.2524 34.034 73.1268C34.2936 74.2199 29.6213 77.7176 23.6511 81.434C17.9404 84.9318 13.7872 87.9924 14.566 87.9924C18.2 87.9924 29.3617 82.7457 29.3617 81.2154C29.3617 80.341 31.9574 79.6851 35.3319 79.9038C38.4468 80.1224 41.5617 79.2479 42.0809 78.1549C42.6 76.8432 44.6766 74.0013 46.4936 71.5965C51.6851 65.4754 51.4255 60.2288 46.234 63.9451C44.1574 65.4754 42.8596 67.2243 43.3787 68.0988C45.1957 70.5035 40.2638 75.9688 37.9277 74.0013C36.8894 72.9082 37.1489 71.5965 38.966 71.1593C40.783 70.7221 41.3021 68.7546 40.5234 67.0057C39.7447 65.2568 40.5234 62.4149 42.3404 60.666C44.1574 58.6985 44.9362 56.731 43.8979 55.8565C43.1191 54.9821 44.9362 52.1401 48.0511 49.2982C51.166 46.4563 52.2043 44.2701 50.6468 44.2701C44.9362 44.2701 47.5319 40.1165 55.3191 36.6188C59.4723 34.8699 70.1149 31.8093 79.2 30.0604C93.7362 27.2185 95.8128 27.2185 99.966 30.4976C105.936 34.8699 104.119 36.6188 97.1106 33.3396C93.9957 32.0279 91.6596 31.5907 91.6596 32.0279C91.6596 32.6838 95.034 34.6513 99.1872 36.6188C107.494 40.1165 113.204 37.4932 107.494 32.6838C103.34 29.186 103.86 26.7813 109.311 26.7813C112.685 26.7813 112.945 27.2185 110.349 28.7488C107.494 30.0604 107.494 30.9349 110.349 32.6838C117.098 37.056 120.991 38.5863 119.174 35.9629C118.136 34.4326 118.915 33.3396 120.732 33.3396C122.809 33.121 122.289 32.0279 119.174 30.0604C114.243 26.9999 114.243 26.7813 120.472 26.7813C125.145 26.7813 126.962 28.0929 127.221 31.1535C127.481 33.5582 126.702 35.5257 125.145 35.5257C123.847 35.5257 122.809 37.056 122.809 38.8049C122.809 43.6143 127.221 42.7399 128.779 37.4932C129.817 34.6513 131.374 33.5582 133.191 34.4326C135.528 35.5257 135.787 34.6513 134.489 31.1535C132.672 26.5626 133.191 26.5626 145.391 27.4371C156.294 28.5301 165.379 29.8418 169.532 31.1535C170.311 31.3721 171.868 31.5907 172.906 31.3721C176.281 30.9349 191.077 38.3676 197.566 43.8329C200.681 46.6749 203.277 51.2657 203.277 53.889C203.277 57.6054 205.613 59.7915 211.064 61.759C215.477 63.2893 218.851 65.4754 218.851 66.7871C218.851 68.3174 217.813 68.3174 215.736 66.5685C210.545 62.1963 208.468 63.5079 208.468 71.5965C208.468 75.7501 209.506 79.2479 210.545 79.2479C213.4 79.2479 212.881 96.9554 210.285 100.672C208.728 102.421 209.506 105.044 211.843 107.23C219.63 114.882 222.226 121.221 218.591 123.407C215.736 125.156 215.736 125.375 218.851 124.5C220.928 124.063 223.004 121.877 223.004 119.472C223.264 117.286 223.783 114.226 224.043 113.133C224.302 111.821 224.562 110.072 224.302 109.198C224.043 108.105 226.638 109.198 230.272 111.384C233.647 113.57 235.983 115.756 235.464 116.193C234.945 116.63 232.868 115.756 230.791 114.444C228.715 112.914 226.379 112.695 225.6 113.788C224.821 114.882 227.157 116.849 230.791 118.379C239.617 121.658 240.136 121.44 239.098 115.756C238.579 113.133 236.762 111.165 234.945 111.384C233.387 111.821 228.455 106.793 224.043 100.453C215.996 88.6482 214.438 84.4946 218.851 86.8993C222.485 88.8668 222.226 85.1504 218.332 81.8712C215.996 79.9038 215.996 79.2479 218.332 79.2479C220.149 79.2479 221.447 80.1224 221.447 80.9968C221.447 82.0899 225.081 84.9318 229.234 87.5551C235.204 91.2715 237.021 91.7087 237.021 89.304C237.021 87.5551 234.685 85.5876 232.089 84.7132C229.234 84.0574 225.34 81.2154 223.264 78.3735C219.37 73.3454 219.37 73.3454 228.715 74.2199C239.357 75.0943 243.511 77.0618 234.945 77.0618C227.417 77.0618 225.6 80.7782 232.609 82.3085C240.915 84.0574 244.03 83.8387 239.877 81.6526C236.762 79.9038 237.281 79.0293 242.991 76.8432C246.885 75.3129 250 73.1268 250 72.0338C250 70.9407 248.183 71.1593 246.106 72.6896C241.434 75.9688 237.54 74.0013 234.426 67.0057C233.128 64.1638 231.051 61.759 230.013 61.9776C225.081 62.6335 221.447 61.5404 221.447 59.5729C221.447 58.4799 223.523 58.0426 226.119 58.6985C229.753 59.7915 230.013 59.5729 226.638 57.6054C224.562 56.2938 220.668 55.8565 218.072 56.5124C215.477 57.1682 213.919 56.9496 214.179 55.8565C216.774 49.5168 179.915 26.7813 166.936 26.7813C163.821 26.7813 162.004 25.9068 162.783 25.0324C163.302 24.1579 157.072 23.2835 148.766 23.2835C140.2 23.2835 132.672 22.6276 131.894 21.9718C129.557 20.0043 135.268 11.4785 138.902 11.4785C141.238 11.4785 141.238 12.1343 138.902 14.1018C133.711 18.474 135.528 21.0974 140.719 17.1624C143.834 14.7576 147.209 13.8832 149.285 14.9763C152.14 16.2879 152.14 16.0693 149.285 13.2274C146.689 10.3854 146.689 9.51098 149.285 8.41792C151.102 7.76209 147.987 7.76209 142.277 8.19931L131.894 9.29237L139.681 6.0132C146.689 2.95265 146.949 2.73403 141.238 3.17126C135.009 3.82709 132.413 6.23181 129.298 14.539C128 18.474 127.221 18.2554 120.213 12.5715C109.83 4.26431 108.013 6.45042 117.617 15.1949C126.962 23.7207 127.221 24.5951 118.915 24.5951C114.762 24.5951 112.426 23.2835 112.426 21.316C112.426 19.5671 111.387 18.0368 109.83 18.0368C108.532 18.0368 108.013 16.7251 108.791 15.1949C109.311 13.6646 106.974 9.9482 103.34 7.10626C99.7064 4.26431 96.8511 2.73403 96.8511 3.60848ZM47.5319 46.4563C47.5319 47.5493 46.234 48.6424 44.6766 48.6424C43.3787 48.6424 42.8596 47.5493 43.6383 46.4563C44.417 45.1446 45.7149 44.2701 46.4936 44.2701C47.0128 44.2701 47.5319 45.1446 47.5319 46.4563ZM230.791 69.4104C233.387 71.1593 234.426 72.6896 232.868 72.6896C231.57 72.6896 227.936 71.1593 225.081 69.4104C222.485 67.6615 221.447 66.1313 223.004 66.1313C224.302 66.1313 227.936 67.6615 230.791 69.4104ZM216.255 75.0943C216.255 76.406 215.217 76.6246 213.66 75.9688C212.362 75.3129 211.064 73.564 211.064 72.471C211.064 71.1593 212.362 70.9407 213.66 71.5965C215.217 72.2524 216.255 74.0013 216.255 75.0943ZM217.553 99.1415C216.515 100.235 217.034 101.109 218.332 101.109C219.63 101.109 220.668 102.639 220.668 104.388C220.668 107.667 216.515 109.198 215.996 105.918C214.438 98.7043 214.698 94.7693 216.774 95.8624C217.813 96.5182 218.332 98.0485 217.553 99.1415Z" fill="black"/>
<path d="M28.1081 61.8997C31.9019 63.7993 29.6256 65.9101 16.4738 71.398C11.6683 73.5088 8.63329 75.6195 9.39205 76.4638C10.4037 77.097 12.4271 76.4638 13.9446 75.1974C18.2442 71.6091 22.2909 72.0312 18.4971 75.8306C16.7267 77.5192 13.6917 78.9967 11.9212 78.9967C9.89789 78.9967 8.38037 79.841 8.38037 81.1074C8.38037 84.0625 9.89789 83.8514 19.7617 78.3635C24.5672 75.8306 28.6139 72.6645 28.6139 71.1869C28.6139 69.9205 29.8785 68.443 31.6489 68.0208C35.4427 66.9655 32.4077 60 28.1081 60C25.5789 60 25.5789 60.4221 28.1081 61.8997Z" fill="black"/>
<path d="M27.1965 85.7496C25.1143 87.4906 23.5526 90.1022 23.5526 91.4079C23.5526 92.7137 21.7307 94.89 19.6485 96.4134C17.5663 97.9368 15.7444 100.331 15.7444 101.637C16.0046 102.942 18.3471 101.637 20.9499 98.8073C23.8129 95.9782 26.1554 94.89 26.1554 96.1958C26.1554 97.7192 27.4568 98.1544 29.539 97.2839C31.1006 96.4134 28.2376 99.025 23.0321 103.378C17.5663 107.512 13.1416 111.647 13.1416 112.736C13.1416 113.824 16.7855 111.865 20.9499 108.383C29.2787 101.637 31.3609 103.16 24.5937 111.212C22.5115 113.824 21.7307 116 23.2924 116C26.4157 116 39.1692 103.378 39.1692 100.113C39.1692 98.8073 37.3472 99.6778 35.265 102.072C33.1828 104.248 31.3609 105.119 31.3609 103.595C31.3609 102.289 33.4431 99.6778 36.0459 98.1544C38.6486 96.631 42.0322 92.2785 43.5939 88.5788C46.4569 82.0499 46.1966 81.8323 38.6486 82.0499C34.4842 82.2675 29.2787 83.7909 27.1965 85.7496ZM36.8267 88.7964C38.1281 87.9259 38.3883 89.2317 37.3472 91.1903C36.3061 93.8019 35.265 94.2371 34.4842 92.4961C33.7034 90.3198 32.6623 90.3198 29.7992 92.2785C25.3746 95.3253 24.854 91.8432 29.2787 88.1435C31.3609 86.4025 32.9225 86.1849 33.4431 87.7083C33.9637 88.7964 35.5253 89.4493 36.8267 88.7964Z" fill="black"/>
<path d="M222.624 89.6896C222.624 94.1079 229.623 99.8517 238.371 102.503C243.37 104.049 247.62 104.491 247.62 103.386C247.62 102.282 244.12 100.735 239.621 99.8517C232.872 98.7472 232.372 98.3053 236.372 96.7589C241.121 95.2125 241.121 94.9916 236.622 94.9916C233.872 94.7707 229.623 93.2243 227.124 91.0151C224.624 89.0268 222.624 88.3641 222.624 89.6896Z" fill="black"/>

        
<g id="Frame 21">
<path id="Vector" d="M75.8591 97.6206C72.5407 100.939 76.7641 104.861 83.0991 104.861C86.1157 104.861 91.2441 106.067 94.2607 107.576C109.947 116.324 119.299 119.341 118.092 116.022C115.981 109.386 79.7807 93.6989 75.8591 97.6206Z" fill="black"/>
<path id="Vector_2" d="M144.639 106.973C138.002 109.084 131.365 112.403 129.857 113.911C124.125 119.643 130.159 119.643 145.544 113.911C154.292 110.593 164.549 107.878 168.772 107.878C172.995 107.878 176.314 106.671 176.314 104.861C176.314 100.939 159.119 101.844 144.639 106.973Z" fill="black"/>
<path id="Vector_3" d="M71.0319 124.469C71.0319 130.201 71.3336 130.502 73.4452 124.469C75.5569 119.039 75.8586 119.341 77.6686 126.279C78.8752 130.502 82.7969 135.631 86.4169 137.441L93.3552 141.061L86.1152 140.156C82.1936 139.854 78.2719 141.061 77.6686 142.871C76.1602 147.094 109.947 148.301 115.98 144.077C119.299 141.664 117.187 141.362 108.439 142.569C98.1819 143.776 97.5785 143.776 104.819 141.362C132.873 132.011 124.728 120.246 90.0369 118.737C72.2386 118.134 70.7302 118.737 71.0319 124.469ZM95.7685 129.296C94.8635 132.614 95.4669 135.027 97.2769 135.027C98.7852 135.027 100.897 132.312 101.802 128.994C103.31 122.659 111.154 120.849 114.472 125.977C117.79 131.106 110.249 137.742 102.104 137.139C97.8802 136.837 93.3552 134.424 91.8469 132.011C89.4335 128.391 88.8302 128.391 88.8302 131.709C88.8302 135.027 87.9252 135.027 84.3052 132.011C77.3669 126.279 78.8752 123.262 88.5286 123.564C95.1652 123.866 96.6735 125.072 95.7685 129.296Z" fill="black"/>
<path id="Vector_4" d="M104.215 130.804C104.215 134.122 105.12 135.027 106.025 132.614C106.93 130.502 106.629 127.787 105.724 126.882C104.819 125.676 103.914 127.486 104.215 130.804Z" fill="black"/>
<path id="Vector_5" d="M136.192 125.374C132.874 128.994 132.27 132.011 134.382 135.932C136.494 139.552 136.192 141.061 133.477 141.061C130.762 141.061 131.064 142.267 134.08 145.586C137.7 148.904 142.527 149.206 156.102 147.396C165.755 146.189 175.107 143.172 177.219 141.061C180.235 138.044 179.632 137.742 174.805 139.552C171.487 141.061 163.644 142.267 157.309 142.871C151.275 143.474 144.94 144.379 143.432 145.586C141.924 146.491 139.812 145.887 138.605 144.077C137.7 142.267 139.812 141.061 143.734 140.759H150.672L144.035 138.044C140.114 136.536 137.097 133.217 137.097 130.502C137.097 124.469 140.114 124.771 144.94 131.106C148.56 135.932 148.56 135.932 147.052 129.597C145.544 123.866 146.449 122.961 155.197 122.961C164.247 122.961 164.85 123.564 163.644 132.011C162.739 136.837 162.739 141.061 163.04 141.061C163.644 141.061 167.565 139.552 171.789 137.441C187.475 130.502 178.425 119.944 156.705 119.944C145.544 119.944 139.51 121.452 136.192 125.374ZM175.409 129.899C173.599 135.631 168.47 135.329 168.47 129.296C168.47 125.977 169.979 124.167 172.694 125.072C174.805 125.977 176.012 128.089 175.409 129.899Z" fill="black"/>
<path id="Vector_6" d="M152.18 130.201C152.18 132.614 153.689 135.631 155.197 136.536C157.007 137.441 158.214 135.631 158.214 132.312C158.214 128.692 157.007 125.977 155.197 125.977C153.689 125.977 152.18 127.787 152.18 130.201Z" fill="black"/>
<path id="Vector_7" d="M182.95 132.011C182.95 136.234 183.554 137.742 184.459 135.631C185.062 133.821 185.062 130.201 184.459 128.089C183.554 126.279 182.95 127.788 182.95 132.011Z" fill="black"/>
</g>

        
<g id="Frame 23">
<path id="Vector" d="M124.61 149.378C114.126 150.426 110.719 158.289 117.534 165.889C123.562 172.703 141.907 172.703 150.294 165.889C156.322 161.172 156.322 160.648 151.867 155.668C146.887 150.164 138.238 148.068 124.61 149.378ZM148.46 158.289C152.129 164.055 150.032 165.889 137.19 167.462C128.803 168.51 125.134 167.724 120.941 164.055C115.961 159.337 115.699 159.075 120.417 155.668C126.969 150.951 144.79 152.785 148.46 158.289Z" fill="black"/>
<path id="Vector_2" d="M126.445 158.813C126.445 160.91 127.755 163.531 129.065 164.317C130.638 165.103 131.686 164.055 131.686 161.958C131.686 159.862 130.638 157.241 129.065 156.454C127.755 155.668 126.445 156.717 126.445 158.813Z" fill="black"/>
<path id="Vector_3" d="M135.879 157.503C134.831 159.337 134.569 161.434 135.355 162.22C137.714 164.579 140.335 161.172 139.024 157.503C137.976 154.62 137.452 154.62 135.879 157.503Z" fill="black"/>
</g>

        
<g id="Frame 29">
<g id="Group 39">
<path id="Vector" d="M126.324 190.161C112.403 194.168 109.661 208.511 121.262 217.581C125.691 220.956 128.433 221.588 135.183 220.534C139.823 219.901 145.729 217.792 148.471 216.104C165.556 204.925 147.417 183.833 126.324 190.161ZM129.488 201.972C129.066 209.777 129.488 212.097 132.019 212.097C134.55 212.097 134.972 209.777 134.55 201.972C133.917 193.114 134.339 192.059 138.347 192.059C144.675 192.059 153.323 201.34 151.635 206.191C149.315 212.941 146.573 215.261 138.136 217.37C130.965 219.479 129.066 219.057 123.582 215.261C115.778 209.566 114.934 200.285 121.895 195.434C129.066 190.372 130.121 191.215 129.488 201.972Z" fill="black"/>
</g>
</g>

        
    </svg>
