
    <svg width="256" height="256" viewBox="0 0 256 256" fill="none" xmlns="http://www.w3.org/2000/svg">
        
<g id="Frame 43">
<rect width="256" height="256" fill="#BB4DFF"/>
</g>

        
<g id="head">
<path id="Vector" d="M36.7332 45.6036C36.5521 45.9054 36.7936 47.1125 37.2764 48.2593C37.7593 49.4061 38.0007 50.915 37.8196 51.5789C37.6386 52.2428 37.7593 53.631 38.1214 54.5967C38.9061 56.8903 37.9403 57.856 34.5 58.2182C33.5946 58.3389 34.0171 60.0892 34.9829 60.0892C35.4657 60.0892 35.7071 60.3306 35.5261 60.6928C35.345 60.9946 35.4657 61.2964 35.8882 61.2964C36.3107 61.2964 36.4314 61.8999 36.3107 62.8053C36.1296 63.6503 36.19 64.3142 36.3711 64.3142C36.7936 64.3142 37.2764 73.4281 37.0953 77.2909C36.6728 86.0427 36.7332 86.767 37.6386 87.2498C38.3025 87.6723 38.3025 87.793 37.7593 87.8534C37.2764 87.8534 37.035 88.2155 37.2161 88.5777C37.3368 89.0002 37.035 90.2677 36.6125 91.4145L35.7071 93.4666L37.2764 92.4405C38.7853 91.4748 38.8457 91.4748 38.8457 92.6216C38.8457 93.4062 38.5439 93.708 38.0007 93.5269C37.5178 93.3459 36.9746 93.4666 36.7332 93.8287C36.5521 94.1909 36.8539 94.4927 37.4575 94.4927C38.3025 94.4927 38.3628 94.6134 37.7593 95.0359C36.6125 95.6998 36.7332 96.4844 38.0611 96.9673C39.0268 97.3898 39.0268 97.4501 37.88 97.4501C36.6125 97.5105 36.3711 98.1744 36.4918 101.434C36.4918 102.399 36.6125 104.27 36.6125 105.538C36.6728 106.987 36.9746 107.711 37.3971 107.53C37.8196 107.349 38.3025 107.65 38.4836 108.133C38.725 108.858 38.5439 108.978 37.6386 108.677C36.9746 108.435 36.4314 108.556 36.4314 108.918C36.4314 109.28 36.7332 109.582 37.035 109.582C37.4575 109.582 37.4575 109.944 37.035 110.789C36.2503 112.298 36.8539 112.358 38.4836 110.91C39.5096 110.065 39.6303 110.065 38.9664 110.91C38.5439 111.453 38.4232 111.996 38.725 112.117C38.9664 112.177 38.8457 112.962 38.3628 113.807C37.5782 115.195 37.5782 115.195 37.8196 113.928C38.0007 113.203 37.88 112.6 37.5782 112.6C36.7332 112.6 36.9746 114.773 37.9403 115.618C38.6043 116.161 38.8457 118.696 38.9664 128.293C39.0871 134.871 38.9664 140.122 38.7853 140.002C38.1818 139.64 38.3025 144.046 38.9061 145.736C39.2682 146.52 39.5096 148.693 39.5096 150.444C39.57 152.254 39.8718 154.005 40.2943 154.427C40.6564 154.85 40.8978 156.721 40.8375 159.014C40.7168 162.273 40.8375 162.756 41.6221 162.455C42.1653 162.273 42.7085 162.092 42.8292 162.092C43.0103 162.092 42.95 161.791 42.7689 161.489C42.5878 161.127 42.6482 160.885 42.95 160.885C43.8553 160.885 46.3299 165.955 46.2092 167.525C45.9678 169.456 46.9939 171.448 49.7099 174.345C50.8567 175.612 52.4864 177.785 53.3313 179.234C54.8403 181.829 55.9871 183.157 60.2724 187.503C61.7813 189.012 62.6263 190.339 62.5056 191.124C62.3849 191.909 63.1092 193.116 64.7388 194.564C66.127 195.832 67.2134 196.979 67.2134 197.16C67.2134 197.401 68.8431 199.212 70.8348 201.204C72.8266 203.256 74.4563 205.308 74.4563 205.73C74.4563 206.877 77.7759 209.895 78.3795 209.352C78.6209 209.05 78.6812 209.171 78.5002 209.593C78.0777 210.197 83.2684 215.75 84.898 216.414C85.3205 216.595 87.2519 217.802 89.2437 219.13C91.2355 220.458 93.2876 221.785 93.8308 222.147C100.168 226.01 102.402 227.278 104.393 227.881C105.661 228.304 107.592 229.028 108.679 229.511C109.705 229.934 110.972 230.296 111.515 230.296C112.059 230.296 113.085 230.96 113.809 231.805C114.533 232.65 116.042 233.434 117.249 233.676C120.207 234.159 122.078 235.124 121.776 236.03C121.535 236.573 122.561 236.875 124.975 237.176C132.278 237.961 136.081 238.685 137.046 239.47C137.469 239.832 138.193 239.832 138.917 239.41C139.521 239.047 142.599 238.746 145.677 238.685C151.713 238.565 152.437 238.323 162.517 232.951C164.629 231.805 167.164 230.899 168.07 230.899C170.001 230.899 170.967 229.813 169.76 229.028C168.734 228.425 166.561 228.907 163.784 230.356C156.481 234.159 151.834 235.849 147.428 236.331C142.539 236.875 136.926 236.633 134.149 235.728C133.304 235.486 130.83 235.366 128.657 235.547C126.061 235.788 124.552 235.667 124.311 235.185C123.828 234.46 124.311 234.34 128.053 234.521C129.502 234.581 130.588 234.34 130.588 233.977C130.588 233.615 130.588 233.132 130.588 232.831C130.588 232.589 129.441 232.408 127.993 232.348C119.664 232.287 117.491 232.046 116.344 231.141C115.74 230.658 115.499 230.356 115.861 230.537C116.766 230.96 119.12 229.209 119.12 228.123C119.12 227.157 117.853 226.976 116.948 227.881C116.042 228.787 109.463 227.942 109.463 226.976C109.463 225.648 107.713 224.562 106.928 225.346C105.842 226.433 105.178 226.252 101.677 223.958C99.9269 222.811 97.8747 221.665 97.0901 221.484C95.219 221.001 90.7526 217.138 90.7526 215.991C90.7526 215.388 90.4508 215.206 89.7266 215.508C87.7951 216.233 87.4934 216.112 87.2519 214.844C87.1312 214.12 85.3809 211.947 83.3287 210.016C81.2766 208.084 78.5002 205.127 77.2327 203.437C75.9652 201.807 73.3095 198.789 71.3781 196.798C66.7306 191.969 64.7388 189.494 65.2217 189.012C65.4631 188.83 64.1956 187.261 62.5056 185.632C60.7552 183.942 59.367 182.433 59.367 182.131C59.367 181.769 54.4178 176.216 50.5549 172.232C50.0117 171.689 49.7703 170.965 49.9514 170.663C50.2531 170.12 47.1146 163.3 45.6057 161.247C44.9417 160.342 43.6742 155.332 43.0103 151.228C42.7689 149.417 42.286 146.339 41.9239 144.408C41.6221 142.537 41.3203 132.035 41.3203 121.17C41.3203 99.623 40.8375 86.5255 39.9925 80.9124C39.3889 77.1702 39.6907 53.9328 40.2943 52.9068C40.5357 52.605 40.415 52.1825 40.1132 52.0014C39.8114 51.76 39.6907 50.1303 39.8718 48.3196C40.2339 45.0604 40.1735 45 38.6646 45C37.8196 45 36.9746 45.2414 36.7332 45.6036ZM38.4232 99.1401C38.1818 99.6833 38.3025 99.9851 38.6043 99.7437C38.9664 99.5626 39.2682 100.227 39.3285 101.192C39.3889 102.158 39.1475 102.943 38.8457 102.943C38.4836 102.943 38.3628 102.641 38.5439 102.339C38.725 101.977 38.4836 101.735 38.0007 101.735C37.4575 101.735 37.035 101.615 37.035 101.494C37.035 100.83 38.2421 98.1141 38.4836 98.1141C38.6646 98.1141 38.6043 98.5366 38.4232 99.1401Z" fill="black"/>
<path id="Vector_2" d="M205.129 51.0357C204.948 51.3374 204.948 52.6049 205.189 53.7517C205.431 55.1399 205.31 56.2263 204.827 56.7696C204.224 57.4938 204.224 58.0974 204.646 59.0631C206.759 63.4088 207.241 65.0988 207.241 67.5734C207.241 69.0824 207.422 70.3499 207.724 70.3499C208.267 70.3499 208.509 74.937 208.75 92.6819C209.052 112.962 210.259 126.784 211.768 126.301C212.432 126.059 212.372 124.43 211.104 115.98C209.957 107.771 209.957 97.088 211.104 97.088C212.07 97.088 212.372 98.8383 212.975 108.978C213.156 112.117 213.458 115.497 213.579 116.523C213.881 118.816 214.605 129.5 214.545 130.707C214.303 135.052 214.484 136.803 215.39 138.191C215.993 139.036 216.174 139.76 215.812 139.76C215.51 139.76 215.269 140.424 215.269 141.269C215.269 142.054 215.39 142.657 215.631 142.537C215.933 142.356 215.933 147.848 215.691 154.85C215.631 155.695 215.872 158.048 216.114 160.04C216.536 162.696 216.416 164.386 215.872 166.016C215.39 167.343 215.329 168.611 215.631 169.214C215.933 169.758 215.752 170.904 215.027 172.293C214.424 173.5 213.519 176.035 212.915 177.966C212.251 180.32 211.104 182.252 209.595 183.821C208.267 185.149 207.241 186.537 207.241 186.899C207.241 187.261 206.578 188.408 205.733 189.494C204.888 190.581 204.224 191.667 204.224 191.969C204.224 192.21 203.56 192.935 202.715 193.599C200.844 195.047 200.663 196.737 202.413 196.194C203.922 195.711 203.922 196.496 202.413 199.453C201.809 200.721 201.447 201.928 201.628 202.169C201.87 202.35 201.689 202.531 201.326 202.531C200.964 202.531 200.481 203.135 200.24 203.859C199.878 205.006 197.162 209.05 195.291 211.283C194.566 212.128 189.617 216.293 184.608 220.397C182.314 222.268 179.779 224.441 179.055 225.226C177.244 227.157 169.217 232.287 167.708 232.469C164.69 232.831 158.835 236.392 159.801 237.357C159.982 237.599 161.008 237.176 161.974 236.392C163 235.667 164.267 235.124 164.871 235.185C165.414 235.305 166.863 235.124 168.009 234.822C169.156 234.581 170.544 234.279 171.027 234.219C171.51 234.159 174.528 232.891 177.667 231.322C182.193 229.149 184.064 227.881 186.418 225.226C188.108 223.355 191.79 219.492 194.627 216.534C198.49 212.551 199.938 210.68 200.24 209.05C200.421 207.903 201.145 206.455 201.809 205.851C202.473 205.248 203.016 204.282 203.016 203.739C203.016 203.195 203.62 201.988 204.405 201.083C205.189 200.238 206.578 197.944 207.543 196.073C208.569 194.142 209.957 191.728 210.742 190.702C211.466 189.675 212.07 188.649 212.07 188.468C212.07 188.227 213.156 185.692 214.545 182.795C216.174 179.294 217.08 176.457 217.2 174.466C217.321 172.836 217.804 170.18 218.347 168.551C218.83 166.981 219.132 165.714 218.951 165.714C218.77 165.714 218.951 165.231 219.252 164.627C219.615 163.963 220.037 161.489 220.218 159.014C220.399 156.54 220.701 153.823 220.882 152.918C221.184 151.53 220.942 151.107 219.735 150.685C218.347 150.142 218.287 149.9 218.709 147.848C219.011 146.581 219.132 145.373 219.011 145.192C218.89 145.011 218.709 142.235 218.649 139.096C218.589 136.018 218.347 132.94 218.045 132.397C217.744 131.854 217.381 130.103 217.261 128.474C216.838 124.49 215.209 109.159 214.484 102.943C214.182 100.106 213.881 94.7944 213.82 91.0523C213.76 85.6805 213.519 83.8698 212.613 82.1798C211.829 80.6709 211.466 78.7998 211.466 76.2045C211.466 71.7381 210.501 65.8231 209.354 63.7106C207.845 60.8135 207.181 57.011 207.604 53.6914C207.966 50.6735 207.905 50.4321 206.759 50.4321C206.034 50.4321 205.31 50.6735 205.129 51.0357ZM211.466 90.5694C211.044 91.0523 210.44 91.4748 210.139 91.4748C209.776 91.4748 209.837 91.0523 210.259 90.5694C210.682 90.0866 211.285 89.6641 211.587 89.6641C211.949 89.6641 211.889 90.0866 211.466 90.5694ZM212.251 92.5008C211.829 92.6216 211.466 93.2855 211.466 93.8891C211.466 95.3376 210.501 95.9412 210.018 94.7944C209.475 93.3458 210.259 92.0784 211.708 92.1387C212.372 92.1387 212.613 92.3198 212.251 92.5008ZM219.313 154.85C219.313 156.781 218.77 158.471 218.166 158.471C217.985 158.471 217.804 157.143 217.804 155.513C217.804 153.401 217.985 152.677 218.528 152.858C218.951 153.039 219.313 153.944 219.313 154.85ZM218.709 160.704C218.709 161.549 217.562 162.998 217.2 162.636C216.717 162.153 217.502 160.282 218.166 160.282C218.468 160.282 218.709 160.463 218.709 160.704ZM210.561 187.08C209.535 189.253 208.449 189.977 208.449 188.408C208.449 187.442 210.863 184.243 211.285 184.666C211.466 184.787 211.104 185.873 210.561 187.08ZM208.026 192.15C207.905 192.754 207.181 194.021 206.396 194.927C205.189 196.496 205.069 196.496 205.008 195.349C204.948 194.625 205.129 194.082 205.491 194.082C205.793 194.082 206.034 193.538 206.034 192.935C206.034 191.909 206.698 191.245 207.966 191.124C208.147 191.064 208.207 191.547 208.026 192.15ZM188.531 219.431C188.531 220.216 183.702 225.467 183.038 225.467C182.737 225.467 181.529 226.433 180.443 227.58C178.33 229.752 177.425 230.115 176.761 229.089C176.52 228.726 176.822 228.666 177.425 228.907C178.089 229.149 178.33 229.028 178.089 228.666C177.908 228.364 178.391 227.7 179.175 227.278C180.02 226.855 180.684 226.131 180.684 225.709C180.684 225.346 181.288 224.562 182.073 224.079C182.797 223.536 184.487 222.147 185.754 221.001C188.35 218.647 188.531 218.526 188.531 219.431Z" fill="black"/>
</g>

        
<path d="M111.48 7.18457C111.48 8.64095 108.082 13.2528 103.956 17.622C96.9166 25.1466 96.4311 24.4184 101.043 12.7674C102.499 9.36914 102.014 9.12641 98.8584 11.5537C96.9166 13.2528 94.4893 13.981 93.7611 13.0101C92.7902 12.2819 92.062 12.5246 91.8192 13.7383C91.8192 14.9519 91.3338 18.3502 91.091 21.2629C90.6056 24.9039 91.5765 25.8748 94.0038 24.9039C96.6738 23.9329 97.402 24.6611 96.1884 27.5739C94.2465 32.914 96.6738 32.914 101.043 27.3312C104.198 23.4475 104.198 23.6902 102.742 29.0303C101.771 32.914 102.014 34.1276 103.956 33.1567C105.412 32.1858 106.626 32.4285 106.626 33.8849C106.626 38.254 102.499 38.9822 97.8875 35.3413C91.8192 30.7294 89.6347 30.7294 89.6347 35.3413C89.6347 39.7104 84.7801 49.1769 81.1391 51.6042C79.44 52.8178 79.44 53.546 81.1391 53.546C82.5955 53.546 81.8673 54.7597 79.9255 55.9733C76.77 57.9151 77.0127 58.8861 81.6246 63.4979C86.4792 68.5953 86.7219 69.3235 83.3237 75.8772C79.6827 82.9163 76.5272 84.3727 73.8572 80.2463C71.4299 76.1199 77.2554 68.1098 81.3818 69.8089C84.7801 71.0226 84.5373 70.2944 80.8964 66.168C76.5272 61.0706 70.9445 58.6433 73.6145 63.0125C74.5854 64.2261 73.3718 68.3525 71.4299 72.2362C69.2453 75.8772 66.5753 82.1882 65.1189 86.3146C63.6626 90.1982 61.9634 92.3828 61.2353 90.6837C60.2643 88.0137 64.148 77.0908 71.4299 62.7697C73.129 59.3715 74.0999 55.7306 73.129 55.0024C70.459 52.0896 66.3326 53.7887 66.0899 57.6724C65.3617 68.3525 64.148 72.9644 62.2062 72.9644C61.2353 72.9644 60.7498 73.9353 61.7207 75.149C64.148 79.2754 58.5652 80.2463 54.6815 76.3626C51.0406 72.7217 50.0697 72.7217 44.7296 76.3626C37.4477 81.2172 36.9622 81.2172 36.9622 76.6054C36.9622 74.4208 38.4186 73.2071 40.1177 73.9353C41.5741 74.4208 45.2151 73.4499 47.8851 71.508C51.0406 69.3235 53.4679 68.838 54.4388 70.5371C57.3516 75.3917 60.2643 72.7217 61.9634 63.9834C63.9053 53.7887 77.0127 26.8457 80.1682 26.8457C81.1391 26.8457 82.8382 27.8166 83.5664 29.273C85.5083 32.4285 89.6347 32.4285 89.6347 29.5157C89.6347 28.3021 87.9356 25.6321 85.9937 23.6902C84.0519 21.7484 83.3237 19.5638 84.0519 18.5929C85.0228 17.8647 83.5664 17.1365 81.3818 17.1365C78.4691 17.1365 77.4982 18.3502 78.4691 21.0202C79.1973 22.962 78.9545 24.1757 77.9836 23.4475C76.77 22.7193 72.4008 29.273 68.2744 38.0113C61.478 51.8469 60.0216 53.3033 55.8952 51.1187C51.7688 48.9341 50.5551 50.1478 46.9142 59.6143C42.7878 70.5371 39.3895 73.6926 39.3895 66.8962C39.3895 64.9543 40.3605 63.2552 41.5741 63.2552C42.545 63.2552 43.516 61.5561 43.516 59.6143C43.516 57.6724 42.3023 55.9733 41.0887 55.9733C39.6323 55.9733 40.1177 52.5751 42.3023 48.4487C44.4869 44.3223 46.9142 41.6522 47.8851 42.3804C48.6133 43.3513 47.8851 45.2932 46.4287 46.7496C44.7296 48.4487 43.516 51.3614 43.516 53.3033C43.516 55.9733 44.7296 55.4878 47.3996 51.6042C49.3415 48.6914 52.0115 46.7496 53.2252 47.4778C54.1961 48.2059 55.8952 46.9923 56.6234 44.8077C58.808 38.9822 58.3225 38.0113 54.4388 41.4095C52.0115 43.5941 50.7979 43.5941 50.7979 41.6522C50.7979 40.1959 50.7979 38.4967 50.7979 37.7686C50.7979 37.0404 51.526 36.5549 52.7397 36.3122C53.7106 36.3122 55.6525 35.0985 57.3516 33.8849C60.9925 30.7294 62.9344 36.5549 60.0216 42.1377C58.808 44.565 58.3225 47.235 58.808 47.7205C59.5361 48.4487 61.9634 43.8368 64.3907 37.2831C66.5753 30.9721 69.4881 24.6611 70.7017 23.2048C73.8572 19.5638 72.8863 16.4083 69.4881 19.3211C67.5462 20.7775 65.6044 21.5056 64.8762 20.7775C64.148 20.0493 62.2062 21.2629 60.2643 23.6902C57.3516 27.3312 57.3516 27.5739 61.2353 26.1175C63.9053 25.1466 65.1189 25.3893 64.148 27.0884C63.1771 28.3021 60.7498 28.7875 58.5652 28.3021C52.7397 26.3602 32.8358 44.0795 26.7676 56.7015C19.0002 72.4789 23.6121 92.6255 37.205 102.82C46.186 109.617 51.526 111.801 62.6916 113.258C69.2453 113.986 70.459 113.743 68.0317 111.073C66.5753 109.131 65.8471 107.189 66.5753 106.704C67.0608 105.976 63.1771 105.733 57.5943 105.976C47.3996 106.461 38.6614 103.063 38.6614 98.6938C38.6614 97.4801 40.6032 98.2083 43.0305 100.393C47.8851 104.762 52.0115 105.976 49.5842 102.335C48.856 100.878 50.3124 100.15 52.9824 100.393C55.6525 100.393 57.3516 101.364 56.8661 102.092C56.3807 102.82 59.7789 103.063 64.3907 102.577C69.0026 102.092 73.129 100.636 73.8572 99.422C74.5854 98.4511 71.4299 98.2083 66.818 98.9365C59.2934 100.15 57.837 99.422 53.2252 92.1401L48.1278 83.8873L49.3415 90.6837C50.3124 96.2665 49.8269 97.4801 46.9142 96.2665C44.7296 95.5383 42.3023 94.8101 41.0887 94.8101C40.1177 94.8101 38.4186 92.3828 37.6904 89.2273C35.9913 84.13 35.9913 84.13 34.0495 88.7419C32.1076 93.111 31.8649 93.111 30.1658 87.0428C29.1949 83.4018 28.9522 79.0327 29.6803 77.3335C30.4085 75.6344 31.1367 76.6054 31.1367 79.5181C31.3795 83.4018 32.3504 84.6155 35.2631 83.4018C37.6904 82.4309 39.3895 83.6445 40.3605 87.2855C41.0887 89.9555 43.2732 92.3828 45.2151 92.3828C47.1569 92.3828 48.1278 91.4119 47.3996 90.1982C44.9723 86.3146 48.6133 80.7318 52.7397 81.46C54.9243 81.9454 57.837 82.4309 58.808 82.4309C60.0216 82.6736 60.0216 83.8873 59.2934 85.1009C58.3225 86.5573 56.6234 87.0428 55.4097 86.3146C52.0115 84.13 52.7397 86.8 57.1088 90.9264C62.4489 96.2665 65.1189 95.781 68.2744 88.7419C70.459 84.13 71.6726 83.4018 75.3136 85.1009C81.1391 88.2564 82.3528 88.2564 82.3528 84.13C82.3528 82.4309 84.0519 79.5181 85.9937 77.819C88.9065 75.3917 90.3629 75.3917 93.2756 77.819C95.4602 79.5181 96.9166 79.7609 96.9166 78.3045C96.9166 77.0908 95.2175 75.149 93.0329 74.4208C90.8483 73.4499 89.6347 72.2362 90.3629 71.508C91.091 70.7798 94.0038 71.508 96.9166 72.9644C100.558 74.9062 101.528 77.0908 100.315 80.9745C99.1011 85.8291 99.1011 85.8291 102.499 82.6736C107.354 78.0617 110.509 65.6825 106.869 65.6825C105.412 65.6825 104.927 63.7407 105.655 61.3134C106.869 57.9151 106.626 57.6724 104.441 60.8279C102.257 63.9834 101.771 63.9834 101.771 60.8279C101.771 58.8861 102.742 55.7306 103.956 54.0315C105.412 51.3614 106.383 51.6042 107.839 55.2451C109.053 57.6724 109.539 61.0706 109.296 62.7697C109.053 64.4689 110.267 65.4398 111.966 65.197C114.15 64.7116 114.879 67.6243 114.636 75.3917C113.908 86.3146 115.364 85.3436 119.976 71.7508C121.432 67.6243 122.646 68.5953 127.743 78.5472C130.899 85.1009 134.297 89.7128 135.025 88.9846C135.753 88.2564 134.054 83.8873 131.384 79.0327C128.471 74.4208 126.772 68.838 127.743 66.8962C128.471 64.7116 128.229 63.2552 127.015 63.7407C125.801 64.2261 124.831 63.2552 124.831 62.0416C124.831 60.5852 125.559 59.857 126.772 60.0997C128.957 61.0706 128.957 57.4297 126.772 55.2451C126.044 54.2742 123.86 54.7597 121.918 56.216C119.733 58.4006 118.762 58.1579 118.762 56.216C118.762 54.7597 119.976 53.546 121.432 53.546C122.646 53.546 123.131 52.3324 122.403 51.1187C121.432 49.6623 119.733 49.1769 118.52 49.9051C117.306 50.876 116.335 49.6623 116.335 47.7205C116.335 42.6232 117.063 42.8659 125.316 50.6332C132.598 57.187 140.608 70.2944 140.608 75.3917C140.608 80.7318 135.996 75.149 134.54 68.1098C133.569 63.9834 131.87 60.8279 130.656 60.8279C129.2 60.8279 129.2 62.527 130.656 65.4398C132.112 67.8671 132.598 70.5371 131.87 71.0226C131.384 71.7508 133.569 77.0908 136.967 82.9163C140.608 88.9846 142.55 90.9264 141.579 87.5282C140.123 81.9454 140.123 81.7027 144.249 85.1009C148.133 88.2564 148.618 88.2564 147.404 85.1009C146.676 83.1591 144.249 81.7027 142.064 81.7027C138.909 82.1882 138.666 81.46 140.851 78.7899C142.307 76.8481 143.035 73.6926 142.064 71.7508C141.336 69.5662 142.064 68.1098 144.006 68.1098C146.191 68.1098 146.919 70.0516 146.191 73.4499C145.22 78.0617 145.463 78.3045 147.647 75.3917C149.104 73.4499 150.317 69.5662 150.56 66.8962C150.803 62.2843 151.045 62.2843 152.016 66.6534C152.744 69.3235 154.686 72.7217 156.385 74.6635C159.055 77.3335 160.026 76.6054 161.968 71.0226L164.153 64.4689L167.308 71.0226C171.192 79.0327 175.561 77.3335 173.619 68.3525C172.163 62.7697 172.406 62.527 175.318 66.168C177.26 68.5953 179.93 70.5371 181.387 70.5371C182.843 70.5371 184.785 72.7217 185.513 75.6344C186.484 78.5472 188.426 80.0036 190.61 79.2754C192.552 78.5472 194.009 79.5181 194.009 81.7027C194.009 84.13 195.465 85.1009 197.65 84.13C199.834 83.4018 201.29 84.13 201.29 86.5573C201.29 88.7419 199.591 89.9555 197.164 89.4701C194.494 88.9846 192.795 90.441 192.795 93.111C192.795 95.5383 191.096 98.4511 189.154 99.6647C187.212 100.878 186.727 102.092 188.183 102.092C189.397 102.092 191.824 100.878 193.523 99.1793C195.708 96.9947 196.436 96.9947 196.436 99.1793C196.436 100.878 198.378 102.092 200.562 102.092C204.203 102.092 203.961 101.607 199.834 98.2083C197.407 96.2665 196.679 95.2956 198.62 96.2665C201.048 97.4801 201.533 96.9947 200.077 94.8101C198.863 92.8683 199.349 92.1401 201.533 92.8683C205.174 94.0819 206.388 105.248 202.99 109.859C201.29 112.287 201.048 112.044 202.019 108.888C203.475 104.762 196.193 101.364 190.125 103.791C185.27 105.733 188.911 109.859 194.009 108.16C197.65 106.947 198.135 107.675 197.164 111.801C195.222 118.598 200.077 117.869 206.145 110.102C209.543 105.49 210.757 101.607 209.786 97.2374C208.815 93.111 209.058 92.3828 210.514 94.5674C213.427 98.6938 216.097 94.5674 218.282 82.6736C219.253 77.5763 220.952 74.4208 222.893 74.9062C225.078 75.3917 225.563 74.1781 224.35 71.2653C223.379 68.838 221.68 63.0125 220.466 58.4006C218.767 50.6332 200.077 29.5157 197.407 32.1858C196.921 32.914 201.533 38.0113 207.601 43.5941C213.912 49.1769 218.282 54.2742 217.553 55.0024C216.825 55.7306 207.844 48.2059 197.407 38.0113C186.969 28.0594 177.746 20.7775 177.017 21.9911C176.047 23.4475 173.377 22.4766 170.707 19.8065C163.667 13.4955 157.356 10.3401 145.22 7.67003C133.569 5 118.762 6.69911 124.102 10.0973C126.53 11.7964 126.287 12.2819 122.889 12.2819C120.461 12.2819 119.248 13.2528 119.976 14.7092C120.704 15.9229 119.733 20.5347 117.549 24.6611C114.636 30.0012 114.15 32.914 116.092 34.8558C119.976 38.7395 119.49 41.4095 114.879 41.4095C112.451 41.4095 111.48 40.1959 112.451 37.5258C113.422 35.0985 112.937 34.3703 110.995 35.584C109.053 36.7976 108.81 36.0694 109.781 33.1567C110.752 30.7294 111.48 27.3312 111.48 25.3893C111.48 23.2048 112.694 22.4766 114.15 23.4475C116.092 24.6611 116.335 23.9329 114.393 20.5347C112.937 17.8647 112.694 13.981 114.15 10.5828C115.364 7.18457 115.364 5 113.908 5C112.451 5 111.48 5.97092 111.48 7.18457ZM152.987 15.1947C154.686 18.3502 155.9 21.0202 155.657 21.2629C155.415 21.7484 155.657 21.9911 156.385 21.9911C157.114 21.9911 158.813 21.9911 160.512 21.9911C161.968 21.9911 161.24 19.5638 158.57 16.8938C153.958 11.5537 153.958 11.5537 158.813 14.2237C166.58 18.3502 186.969 38.9822 185.513 41.4095C184.785 42.6232 185.27 44.0795 186.727 45.0505C187.94 45.7786 189.154 47.7205 189.154 49.1769C189.154 50.6332 186.727 49.9051 183.814 47.235L178.231 42.6232L182.843 47.9632C185.27 50.876 188.426 53.0605 189.639 52.8178C191.096 52.5751 192.552 53.546 193.28 55.2451C195.465 61.0706 185.513 56.4588 178.959 48.4487C172.891 41.4095 172.648 39.9531 175.804 37.5258C178.959 35.0985 178.717 34.3703 174.105 30.2439C169.25 25.8748 169.007 25.8748 170.464 30.0012C171.92 34.1276 171.435 33.8849 165.124 29.5157C161.483 26.8457 157.599 25.1466 156.628 26.1175C155.9 26.8457 157.356 29.273 160.026 30.9721C165.124 34.6131 174.59 50.3905 169.978 47.7205C165.124 44.565 167.308 49.1769 174.59 57.6724C182.358 66.4107 183.571 66.4107 179.202 57.6724C176.532 52.5751 176.775 52.5751 180.658 56.4588C183.328 58.8861 184.299 62.0416 183.328 64.7116C181.872 68.5953 181.387 68.5953 177.26 64.7116C172.163 60.0997 169.007 62.7697 170.949 69.8089C171.677 72.2362 170.464 70.2944 168.036 65.6825C165.609 61.0706 162.939 56.7015 161.968 56.4588C160.755 55.9733 160.026 53.7887 160.026 51.6042C160.026 48.4487 160.755 48.6914 163.667 52.5751C166.823 56.9442 167.066 56.7015 166.095 49.4196C165.124 40.1959 160.755 31.7003 157.114 31.7003C155.657 31.7003 156.385 34.1276 159.055 36.7976C162.454 40.6813 162.696 42.3804 160.755 43.1086C156.871 44.565 156.628 52.0896 160.026 58.4006C161.483 61.0706 161.483 65.197 160.512 68.3525C158.57 73.2071 158.085 72.7217 153.715 62.527C151.288 56.4588 148.133 52.0896 146.919 52.8178C145.705 53.546 145.22 52.8178 145.948 51.1187C147.647 46.0214 152.744 45.2932 152.744 50.1478C152.744 52.3324 153.23 53.7887 153.958 53.0605C154.686 52.5751 154.444 46.9923 153.715 40.924C152.502 32.1858 150.803 29.273 145.948 26.8457C140.851 24.6611 140.365 23.6902 143.278 21.7484C146.919 19.5638 146.919 19.5638 138.909 18.5929C132.355 17.8647 132.355 17.8647 136.967 26.8457C140.608 33.8849 139.637 41.4095 135.268 41.4095C134.054 41.4095 133.812 40.1959 134.54 38.9822C135.511 37.5258 134.782 34.8558 133.326 32.6712C131.384 30.7294 130.899 25.8748 131.627 20.7775C132.355 15.6801 132.112 12.7674 130.656 13.4955C129.442 14.4665 128.471 16.651 128.471 18.5929C128.471 20.5347 127.501 21.9911 126.044 21.9911C122.889 21.9911 122.889 20.5347 126.53 14.7092C131.142 7.4273 149.104 7.91276 152.987 15.1947ZM109.539 26.1175C108.325 32.6712 108.325 32.6712 106.14 27.0884C104.198 21.2629 105.655 16.1656 108.81 18.3502C110.024 18.8356 110.267 22.4766 109.539 26.1175ZM124.831 26.8457C125.559 28.0594 125.073 29.273 123.86 29.273C122.403 29.273 121.19 28.0594 121.19 26.8457C121.19 25.3893 121.675 24.4184 122.16 24.4184C122.889 24.4184 124.102 25.3893 124.831 26.8457ZM150.317 34.6131C150.317 35.8267 149.346 36.0694 147.89 35.3413C146.676 34.6131 144.977 37.0404 144.006 40.6813C141.093 54.7597 138.181 60.0997 139.637 48.6914C140.608 42.6232 141.336 36.0694 141.336 33.8849C141.579 29.7585 150.317 30.4867 150.317 34.6131ZM128.471 36.3122C128.471 38.9822 127.501 41.6522 126.287 42.3804C123.617 44.0795 121.432 38.9822 123.131 34.6131C124.831 30.0012 128.471 31.2148 128.471 36.3122ZM199.106 45.0505C201.533 47.7205 202.261 50.6332 201.048 51.3614C199.834 52.0896 201.048 54.7597 203.961 57.4297C208.815 61.5561 209.301 61.5561 207.844 57.6724C205.902 52.3324 206.873 52.3324 212.213 58.4006C216.34 62.7697 216.34 63.2552 212.699 61.7988C209.786 60.8279 208.572 61.5561 208.572 64.2261C208.572 66.4107 207.359 68.1098 205.902 68.1098C204.689 68.1098 203.961 67.1389 204.689 65.9252C205.417 64.9543 203.961 61.3134 201.29 58.4006C198.62 55.4878 197.164 52.0896 197.65 51.1187C198.378 50.1478 197.164 47.9632 194.98 46.0214C193.038 44.3223 190.125 40.6813 188.669 38.0113C185.998 33.1567 186.241 33.1567 190.61 36.5549C193.038 38.4967 196.921 42.3804 199.106 45.0505ZM101.528 42.8659C105.169 38.7395 110.267 37.5258 107.839 41.4095C107.111 42.6232 107.597 43.8368 108.81 43.8368C111.723 43.8368 119.49 60.8279 117.549 63.0125C116.82 63.7407 115.607 61.7988 114.636 58.8861C113.908 55.9733 112.451 54.0315 111.48 54.7597C110.267 55.4878 108.568 53.7887 107.839 51.1187C106.626 47.235 105.412 46.7496 103.228 48.4487C99.1011 52.0896 90.6056 45.7786 93.2756 41.4095C94.9747 38.7395 95.7029 38.9822 96.9166 42.3804C98.1302 46.2641 98.6157 46.2641 101.528 42.8659ZM36.4768 49.4196C33.3213 52.3324 31.6222 53.0605 32.5931 51.1187C35.9913 44.8077 39.3895 41.1668 40.6032 42.6232C41.3314 43.3513 39.3895 46.5068 36.4768 49.4196ZM131.87 47.7205C132.598 49.6623 132.355 50.6332 130.899 49.9051C129.442 49.1769 128.471 47.4778 128.471 46.0214C128.471 42.6232 130.171 43.3513 131.87 47.7205ZM92.7902 54.7597C92.062 56.7015 90.6056 58.4006 89.3919 58.4006C86.9646 58.4006 86.4792 52.5751 88.6637 50.3905C91.3338 47.7205 94.4893 51.1187 92.7902 54.7597ZM57.5943 58.4006C60.7498 63.4979 59.5361 69.3235 55.6525 66.8962C54.4388 66.168 54.1961 63.7407 54.9243 61.3134C56.3807 57.6724 55.8952 57.6724 52.7397 60.3424C49.3415 63.0125 48.856 62.7697 50.0697 58.6433C51.7688 52.3324 53.7106 52.3324 57.5943 58.4006ZM36.2341 56.9442C36.2341 57.6724 35.2631 58.8861 33.8068 59.6143C32.5931 60.3424 31.3795 59.857 31.3795 58.6433C31.3795 57.187 32.5931 55.9733 33.8068 55.9733C35.2631 55.9733 36.2341 56.4588 36.2341 56.9442ZM148.618 63.9834C147.89 65.197 146.191 64.9543 144.977 63.7407C143.521 62.2843 143.278 59.857 144.249 58.4006C145.705 56.216 146.433 56.216 148.133 58.6433C149.104 60.3424 149.346 62.7697 148.618 63.9834ZM89.1492 63.0125C89.8774 64.9543 88.9065 65.9252 86.9646 65.197C85.2655 64.7116 83.3237 62.7697 82.8382 61.0706C82.11 59.1288 83.081 58.1579 85.0228 58.8861C86.7219 59.3715 88.6637 61.3134 89.1492 63.0125ZM98.373 60.5852C97.6448 61.7988 98.6157 63.2552 100.558 64.2261C102.499 64.9543 104.198 67.8671 104.198 71.0226C104.198 75.6344 103.713 75.8772 100.8 72.9644C96.1884 67.8671 93.5183 58.4006 96.9166 58.4006C98.373 58.4006 99.1011 59.3715 98.373 60.5852ZM194.009 63.2552C191.096 64.9543 191.096 65.6825 193.766 65.6825C195.465 65.6825 196.436 67.1389 195.465 69.3235C193.766 73.6926 197.892 74.1781 199.834 69.8089C200.562 68.3525 200.562 69.5662 199.834 72.4789C198.62 77.5763 199.106 78.0617 203.232 76.8481C205.902 75.8772 208.815 76.3626 209.786 77.5763C210.757 79.2754 209.543 79.5181 206.873 78.5472C202.99 77.0908 202.99 77.3335 205.902 81.2172C208.572 84.3727 208.572 86.0718 206.631 88.0137C204.446 90.1982 203.718 89.4701 203.718 85.3436C203.718 81.46 202.747 80.2463 200.32 80.9745C198.135 81.9454 195.95 80.489 194.98 77.3335C194.009 73.6926 193.038 73.2071 191.581 75.3917C190.125 77.5763 188.911 76.8481 186.484 72.7217C183.814 67.6243 183.814 67.1389 187.212 70.0516C189.639 71.9935 191.824 72.2362 192.552 70.7798C193.523 69.5662 193.038 67.8671 191.581 66.8962C188.426 64.9543 190.853 60.8279 194.737 60.8279C196.436 60.8279 196.193 61.7988 194.009 63.2552ZM33.0786 72.2362C30.4085 74.6635 26.7676 70.2944 28.224 66.6534C29.4376 63.0125 29.9231 63.2552 31.8649 66.8962C33.3213 69.0807 33.564 71.508 33.0786 72.2362ZM217.796 70.0516C219.253 74.4208 214.155 73.4499 212.456 69.0807C211.485 66.6534 212.213 65.6825 213.912 66.168C215.369 66.6534 217.311 68.5953 217.796 70.0516ZM215.854 87.5282C215.854 88.7419 214.641 89.9555 213.184 89.9555C211.971 89.9555 211.485 88.7419 212.213 87.5282C212.942 86.0718 214.155 85.1009 214.883 85.1009C215.369 85.1009 215.854 86.0718 215.854 87.5282Z" fill="black"/>
<path d="M136.967 14.7092C137.938 16.1656 139.394 16.651 140.608 15.9228C142.793 14.4664 146.676 19.0783 146.676 23.2047C146.676 24.4184 148.618 25.8748 151.288 26.3602C153.958 27.0884 155.172 26.3602 153.958 24.6611C153.23 23.2047 151.045 22.7193 149.589 23.6902C147.647 24.9038 147.647 24.1756 149.589 21.5056C152.259 18.5929 151.774 17.3792 146.433 15.1946C138.909 11.5537 135.025 11.5537 136.967 14.7092Z" fill="black"/>
<path d="M163.668 24.4184C164.396 25.632 165.609 26.8457 166.338 26.8457C166.823 26.8457 167.309 25.632 167.309 24.4184C167.309 22.962 166.095 21.9911 164.638 21.9911C163.425 21.9911 162.939 22.962 163.668 24.4184Z" fill="black"/>
<path d="M177.26 38.7394C175.561 39.9531 175.076 41.4095 176.289 42.1377C177.503 42.8659 179.93 42.6231 181.629 41.6522C183.329 40.4386 183.814 38.9822 182.6 38.254C181.387 37.5258 178.959 37.7685 177.26 38.7394Z" fill="black"/>
<path d="M167.308 58.4006C167.308 59.6142 168.522 60.8279 169.978 60.8279C171.192 60.8279 171.677 59.6142 170.949 58.4006C170.221 56.9442 169.007 55.9733 168.279 55.9733C167.794 55.9733 167.308 56.9442 167.308 58.4006Z" fill="black"/>
<path d="M75.7991 36.5548C74.1 38.9821 73.3718 43.1085 74.3427 45.2931C75.3136 48.2059 75.0709 48.9341 73.1291 47.7204C71.43 46.7495 70.2163 46.9922 70.2163 48.2059C70.2163 49.6623 71.9154 51.1186 73.8573 52.0896C76.2846 53.0605 78.9546 50.3905 82.3528 44.0795C84.7801 38.9821 86.2365 34.1275 85.5083 33.1566C82.5955 30.4866 78.7119 31.7002 75.7991 36.5548ZM83.3237 37.7685C82.3528 39.7103 80.8964 41.4094 79.44 41.4094C78.2264 41.4094 77.9837 42.3804 78.7119 43.8367C79.44 45.0504 79.6828 46.264 78.9546 46.264C75.5564 46.264 75.5564 41.4094 78.9546 38.0112C83.5665 33.1566 85.0228 33.1566 83.3237 37.7685Z" fill="black"/>

        
<g id="Frame 10">
<path id="Vector" d="M148.681 108.767C135.135 113.927 133.2 120.055 141.585 129.731C150.938 141.019 165.129 141.664 173.515 131.343C180.933 122.313 180.933 120.055 172.87 111.992C166.097 105.219 159.324 104.251 148.681 108.767ZM169.322 115.862L176.74 122.635L169.322 128.44C165.129 131.666 159.324 134.568 156.744 134.246C149.326 134.246 140.618 126.505 140.94 119.732C140.94 113.927 141.263 113.927 143.843 120.055C146.1 125.215 146.745 125.538 146.745 121.022C147.068 116.185 154.808 109.089 160.291 108.767C161.259 108.767 165.452 111.992 169.322 115.862Z" fill="black"/>
<path id="Vector_2" d="M153.841 118.12C148.681 121.345 151.906 128.118 158.679 128.118C161.259 128.118 163.194 125.215 163.194 121.668C163.194 114.572 160.936 113.605 153.841 118.12Z" fill="black"/>
<path id="Vector_3" d="M86.757 115.862C68.6959 124.57 77.4039 144.244 99.0127 144.244C108.043 144.244 112.236 142.632 114.816 138.116C125.137 118.765 108.043 105.542 86.757 115.862ZM105.141 118.443C105.141 120.055 107.076 121.345 109.011 120.7C111.268 120.378 113.526 123.28 114.171 127.151C115.461 135.536 104.173 142.632 96.1101 139.084C93.2074 137.794 89.3372 137.149 87.7246 137.471C83.2093 138.439 79.6616 131.021 81.9192 125.215C83.5318 121.345 84.4994 121.99 86.112 128.118L88.3696 136.181L88.6921 127.473C89.0146 122.958 90.9498 118.12 93.2074 117.475C99.9803 114.572 105.141 115.217 105.141 118.443Z" fill="black"/>
<path id="Vector_4" d="M94.4975 123.603C89.9822 128.118 92.2399 134.891 98.0452 133.923C100.948 133.278 103.528 130.698 103.528 128.44C103.528 123.28 97.7227 120.377 94.4975 123.603Z" fill="black"/>
<path id="Vector_5" d="M109.011 128.118C109.011 132.633 109.656 134.246 110.623 131.988C111.269 130.053 111.269 126.183 110.623 123.925C109.656 121.99 109.011 123.603 109.011 128.118Z" fill="black"/>
</g>

        
<g id="Frame 13">
<path id="Vector" d="M126.771 132.787C125.934 135.017 122.589 143.938 119.244 152.858C113.111 170.143 113.668 180.457 120.638 174.603C123.704 172.094 124.819 172.094 125.656 174.603C126.213 176.554 128.443 177.112 130.116 175.997C134.298 173.488 142.661 157.598 140.709 155.646C140.152 154.81 136.807 158.992 133.74 165.125C129.28 173.488 128.165 174.603 127.886 169.585C127.886 166.24 129.28 162.616 130.674 161.779C132.346 160.943 133.461 158.713 133.461 157.04C133.461 155.089 131.789 155.367 129.28 157.598C127.049 159.549 125.098 162.616 125.098 164.846C125.098 168.749 120.08 172.93 117.85 170.979C117.292 170.143 119.801 161.222 123.704 150.628C127.607 140.314 130.116 131.114 129.558 130.278C128.722 129.441 127.328 130.556 126.771 132.787Z" fill="black"/>
</g>

        
<g id="Frame 26">
<g id="Group 39">
<path id="Vector" d="M170.785 182.425C170.785 183.515 172.311 185.26 174.274 185.914C176.455 186.786 177.327 186.132 176.891 184.605C175.801 181.334 170.785 179.59 170.785 182.425Z" fill="black"/>
<path id="Vector_2" d="M90.0972 187.004C88.7887 189.621 88.5706 191.584 89.8791 191.584C92.0598 191.584 95.1129 185.042 93.5864 183.515C93.1502 182.861 91.6237 184.605 90.0972 187.004Z" fill="black"/>
<path id="Vector_3" d="M163.589 189.621C164.461 192.456 165.551 193.328 166.86 192.02C169.259 189.621 167.514 185.042 164.243 185.042C163.371 185.042 162.934 187.004 163.589 189.621Z" fill="black"/>
<path id="Vector_4" d="M97.2936 190.493C95.3309 195.727 97.5117 196.382 100.565 191.584C102.309 188.749 102.309 187.222 101.001 187.222C99.6924 187.222 98.1659 188.749 97.2936 190.493Z" fill="black"/>
<path id="Vector_5" d="M105.362 191.148C101.219 192.674 107.325 199.871 114.958 202.488C126.952 206.413 152.903 201.179 159.227 193.328C161.19 190.93 156.61 190.493 134.584 190.493C119.755 190.493 106.671 190.711 105.362 191.148ZM142.435 194.637C156.61 192.238 157.264 195.073 143.307 198.344C131.749 200.961 116.92 200.743 111.687 198.126C104.054 193.983 107.325 192.238 118.447 194.637C125.643 196.163 133.494 196.163 142.435 194.637Z" fill="black"/>
</g>
</g>

        
    </svg>
