<svg width="256" height="256" viewBox="0 0 256 256" fill="none" xmlns="http://www.w3.org/2000/svg">
<g id="Frame 49">
<rect width="256" height="256" fill="#4DDFFF"/>
<rect width="256" height="256" fill="#4DDFFF"/>
<rect width="256" height="256" fill="#B6B6B6"/>
<path id="?" d="M140.24 150.968C143.552 150.968 145.208 149.496 146.496 146.368C153.12 131.096 174.464 128.52 174.464 97.976C174.648 92.456 173.176 59.888 131.96 59.888C94.056 59.888 87.064 84.544 85.96 97.792C85.776 101.104 87.432 103.128 90.744 103.864L111.72 108.464C115.4 109.2 117.24 107.544 117.792 103.864C119.08 96.32 123.312 91.536 131.96 91.536C139.136 91.536 142.08 98.16 140.976 103.68C137.112 122.448 118.712 119.872 114.296 144.896C113.56 148.76 115.768 150.968 119.448 150.968H140.24ZM139.504 160.352C143.184 160.352 145.024 162.192 145.024 165.872V186.48C145.024 189.976 143.184 192 139.504 192H118.896C115.4 192 113.376 189.976 113.376 186.48V165.872C113.376 162.192 115.4 160.352 118.896 160.352H139.504Z" fill="black"/>
</g>
</svg>
